<svg xmlns="http://www.w3.org/2000/svg" width="66" height="65" viewBox="0 0 66 65">
  <g id="Grupo_157" data-name="Grupo 157" transform="translate(-0.094 0.202)">
    <path id="Trazado_77" data-name="Trazado 77" d="M1056.646-109.435h8.323v28.529h-8.323Zm4.164-14.185a4.989,4.989,0,0,1,4.819,5.139,4.99,4.99,0,0,1-4.819,5.145,4.988,4.988,0,0,1-4.823-5.145,4.987,4.987,0,0,1,4.823-5.139m9.377,42.714h8.3V-95.019c0-3.722.659-7.326,4.986-7.326,4.262,0,4.323,4.257,4.323,7.566v13.873h8.305V-96.555c0-7.684-1.556-13.591-9.967-13.591a8.655,8.655,0,0,0-7.869,4.608h-.112v-3.9h-7.971Z" transform="translate(-1042.4 131.396)" fill="none" stroke="#fbb03b" stroke-miterlimit="10" stroke-width="2"/>
    <g id="Rectángulo_233" data-name="Rectángulo 233" transform="translate(0.094 -0.202)" fill="none" stroke="#fbb03b" stroke-width="2">
      <rect width="66" height="65" rx="8" stroke="none"/>
      <rect x="1" y="1" width="64" height="63" rx="7" fill="none"/>
    </g>
  </g>
</svg>
